<?xml version="1.0" encoding="UTF-8" ?>
<!DOCTYPE svg PUBLIC "-//W3C//DTD SVG 1.1//EN" "http://www.w3.org/Graphics/SVG/1.1/DTD/svg11.dtd">
<svg width="112pt" height="110pt" viewBox="0 0 112 110" version="1.1" xmlns="http://www.w3.org/2000/svg">
<g id="#eaeaeaff">
<path fill="#eaeaea" opacity="1.00" d=" M 19.38 7.37 C 20.89 7.05 22.44 7.00 23.98 6.96 C 45.64 7.04 67.31 6.97 88.97 6.99 C 94.63 6.82 100.09 10.30 102.52 15.37 C 104.39 18.93 104.00 23.07 104.03 26.95 C 103.98 47.31 103.93 67.68 103.80 88.04 C 104.08 95.95 96.93 103.10 89.01 102.76 C 67.00 102.77 44.99 102.76 22.98 102.76 C 17.39 102.92 11.96 99.49 9.62 94.43 C 8.25 91.87 8.17 88.90 8.13 86.07 C 8.15 64.70 7.93 43.34 8.00 21.98 C 7.81 15.24 12.84 8.89 19.38 7.37 Z" />
</g>
<g id="#c0c0c0ff">
<path fill="#c0c0c0" opacity="1.00" d=" M 19.45 2.48 C 21.91 2.01 24.43 2.00 26.93 1.99 C 47.28 2.05 67.63 1.96 87.98 2.03 C 93.98 2.00 100.07 4.40 103.99 9.02 C 107.60 13.11 109.10 18.67 109.00 24.04 C 108.98 45.03 109.03 66.02 108.97 87.01 C 109.00 93.20 106.41 99.51 101.50 103.40 C 97.47 106.72 92.15 108.09 86.99 108.00 C 66.34 107.99 45.70 107.99 25.05 108.00 C 20.10 108.07 15.00 106.86 11.03 103.81 C 5.47 99.74 2.77 92.72 3.00 85.96 C 3.06 64.64 2.91 43.32 3.08 22.01 C 3.11 12.69 10.20 4.01 19.45 2.48 M 19.38 7.37 C 12.84 8.89 7.81 15.24 8.00 21.98 C 7.93 43.34 8.15 64.70 8.13 86.07 C 8.17 88.90 8.25 91.87 9.62 94.43 C 11.96 99.49 17.39 102.92 22.98 102.76 C 44.99 102.76 67.00 102.77 89.01 102.76 C 96.93 103.10 104.08 95.95 103.80 88.04 C 103.93 67.68 103.98 47.31 104.03 26.95 C 104.00 23.07 104.39 18.93 102.52 15.37 C 100.09 10.30 94.63 6.82 88.97 6.99 C 67.31 6.97 45.64 7.04 23.98 6.96 C 22.44 7.00 20.89 7.05 19.38 7.37 Z" />
</g>
</svg>
