<?xml version="1.0" encoding="UTF-8" ?>
<!DOCTYPE svg PUBLIC "-//W3C//DTD SVG 1.1//EN" "http://www.w3.org/Graphics/SVG/1.1/DTD/svg11.dtd">
<svg width="112pt" height="110pt" viewBox="0 0 112 110" version="1.1" xmlns="http://www.w3.org/2000/svg">
<g id="#ebebebff">
<path fill="#ebebeb" opacity="1.00" d=" M 19.33 7.61 C 20.88 7.29 22.47 7.28 24.04 7.24 C 46.04 7.30 68.03 7.19 90.03 7.30 C 97.96 7.44 104.51 15.11 103.82 22.94 C 103.85 44.65 104.03 66.36 104.00 88.07 C 104.26 96.05 97.03 103.27 89.05 103.01 C 67.03 102.99 45.01 102.99 23.00 103.01 C 14.98 103.31 7.73 96.04 8.00 88.03 C 8.00 66.00 8.11 43.96 8.22 21.92 C 7.99 15.31 12.97 9.14 19.33 7.61 M 70.80 19.80 C 59.58 35.59 50.52 52.92 43.92 71.14 C 41.51 67.29 38.62 63.75 35.78 60.21 C 33.61 58.12 31.60 54.74 28.11 55.26 C 25.35 55.52 21.14 56.46 21.72 60.13 C 23.20 63.47 26.31 65.63 28.62 68.35 C 32.39 72.70 35.74 77.38 38.71 82.31 C 41.08 87.00 49.83 86.35 50.86 80.91 C 57.61 61.92 66.53 43.64 78.49 27.38 C 80.24 24.57 82.78 22.16 83.53 18.83 C 80.04 15.26 74.01 16.55 70.80 19.80 Z" />
</g>
<g id="#c0c0c0ff">
<path fill="#c0c0c0" opacity="1.00" d=" M 19.40 2.48 C 21.57 2.02 23.79 2.00 25.99 1.99 C 46.66 2.02 67.33 1.98 87.99 2.01 C 93.75 2.01 99.60 4.20 103.52 8.49 C 107.41 12.60 109.14 18.38 109.00 23.97 C 108.99 44.98 109.02 65.99 108.99 86.99 C 108.99 92.75 106.80 98.61 102.50 102.53 C 98.38 106.42 92.59 108.15 86.99 108.00 C 65.98 107.98 44.97 108.02 23.97 107.98 C 18.22 107.98 12.37 105.78 8.46 101.49 C 4.58 97.38 2.86 91.61 3.00 86.03 C 3.04 64.67 2.93 43.31 3.05 21.95 C 3.15 12.67 10.18 4.04 19.40 2.48 M 19.33 7.61 C 12.97 9.14 7.99 15.31 8.22 21.92 C 8.11 43.96 8.00 66.00 8.00 88.03 C 7.73 96.04 14.98 103.31 23.00 103.01 C 45.01 102.99 67.03 102.99 89.05 103.01 C 97.03 103.27 104.26 96.05 104.00 88.07 C 104.03 66.36 103.85 44.65 103.82 22.94 C 104.51 15.11 97.96 7.44 90.03 7.30 C 68.03 7.19 46.04 7.30 24.04 7.24 C 22.47 7.28 20.88 7.29 19.33 7.61 Z" />
</g>
<g id="#707070ff">
<path fill="#707070" opacity="1.00" d=" M 70.80 19.80 C 74.01 16.55 80.04 15.26 83.53 18.83 C 82.78 22.16 80.24 24.57 78.49 27.38 C 66.53 43.64 57.61 61.92 50.86 80.91 C 49.83 86.35 41.08 87.00 38.71 82.31 C 35.74 77.38 32.39 72.70 28.62 68.35 C 26.31 65.63 23.20 63.47 21.72 60.13 C 21.14 56.46 25.35 55.52 28.11 55.26 C 31.60 54.74 33.61 58.12 35.78 60.21 C 38.62 63.75 41.51 67.29 43.92 71.14 C 50.52 52.92 59.58 35.59 70.80 19.80 Z" />
</g>
</svg>
