<?xml version="1.0" encoding="UTF-8" ?>
<!DOCTYPE svg PUBLIC "-//W3C//DTD SVG 1.1//EN" "http://www.w3.org/Graphics/SVG/1.1/DTD/svg11.dtd">
<svg width="112pt" height="110pt" viewBox="0 0 112 110" version="1.1" xmlns="http://www.w3.org/2000/svg">
<g id="#efefefff">
<path fill="#efefef" opacity="1.00" d=" M 19.46 7.68 C 20.94 7.39 22.46 7.33 23.97 7.29 C 45.32 7.33 66.68 7.34 88.03 7.29 C 93.18 6.97 98.42 9.32 101.26 13.69 C 103.21 16.35 103.78 19.72 103.76 22.95 C 103.80 43.96 103.86 64.99 103.99 86.00 C 104.01 89.62 103.62 93.46 101.39 96.46 C 98.49 100.87 93.22 103.25 88.00 103.01 C 67.01 103.02 46.01 102.95 25.02 103.04 C 21.40 103.04 17.56 102.64 14.57 100.42 C 10.16 97.53 7.78 92.24 8.02 87.04 C 8.13 65.36 8.17 43.68 8.27 22.00 C 8.02 15.36 12.99 9.07 19.46 7.68 M 23.39 16.59 C 19.18 18.12 16.63 22.59 16.93 27.00 C 16.88 44.67 17.02 62.35 16.94 80.03 C 16.98 83.62 16.74 87.73 19.42 90.53 C 21.48 93.09 24.79 94.11 27.98 94.00 C 46.65 94.01 65.32 94.00 84.00 94.00 C 89.66 94.59 95.18 89.83 94.96 84.05 C 95.14 65.71 94.98 47.37 95.12 29.03 C 95.05 25.95 95.13 22.53 93.08 20.01 C 91.03 17.09 87.46 15.80 83.99 15.91 C 66.00 15.85 48.01 15.96 30.02 15.86 C 27.80 15.91 25.53 15.90 23.39 16.59 Z" />
</g>
<g id="#c0c0c0ff">
<path fill="#c0c0c0" opacity="1.00" d=" M 19.43 2.45 C 21.92 2.01 24.46 2.01 26.98 2.00 C 47.32 2.03 67.66 1.95 88.00 2.03 C 94.42 1.93 100.94 4.74 104.80 9.96 C 107.92 13.92 109.09 19.05 108.99 24.02 C 108.99 45.02 109.04 66.02 108.97 87.02 C 109.07 93.45 106.24 99.97 101.01 103.83 C 97.06 106.91 91.98 108.09 87.05 107.99 C 66.05 107.99 45.04 108.03 24.04 107.97 C 18.02 108.06 11.90 105.65 7.97 100.99 C 4.35 96.92 2.87 91.38 3.01 86.01 C 3.04 64.65 2.91 43.29 3.08 21.94 C 3.05 12.63 10.21 3.96 19.43 2.45 M 19.46 7.68 C 12.99 9.07 8.02 15.36 8.27 22.00 C 8.17 43.68 8.13 65.36 8.02 87.04 C 7.78 92.24 10.16 97.53 14.57 100.42 C 17.56 102.64 21.40 103.04 25.02 103.04 C 46.01 102.95 67.01 103.02 88.00 103.01 C 93.22 103.25 98.49 100.87 101.39 96.46 C 103.62 93.46 104.01 89.62 103.99 86.00 C 103.86 64.99 103.80 43.96 103.76 22.95 C 103.78 19.72 103.21 16.35 101.26 13.69 C 98.42 9.32 93.18 6.97 88.03 7.29 C 66.68 7.34 45.32 7.33 23.97 7.29 C 22.46 7.33 20.94 7.39 19.46 7.68 Z" />
</g>
<g id="#73994dff">
<path fill="#73994d" opacity="1.00" d=" M 23.39 16.59 C 25.53 15.90 27.80 15.91 30.02 15.86 C 48.01 15.96 66.00 15.85 83.99 15.91 C 87.46 15.80 91.03 17.09 93.08 20.01 C 95.13 22.53 95.05 25.95 95.12 29.03 C 94.98 47.37 95.14 65.71 94.96 84.05 C 95.18 89.83 89.66 94.59 84.00 94.00 C 65.32 94.00 46.65 94.01 27.98 94.00 C 24.79 94.11 21.48 93.09 19.42 90.53 C 16.74 87.73 16.98 83.62 16.94 80.03 C 17.02 62.35 16.88 44.67 16.93 27.00 C 16.63 22.59 19.18 18.12 23.39 16.59 M 25.16 21.29 C 22.72 21.96 21.81 24.65 21.97 26.95 C 21.96 45.30 22.05 63.66 22.15 82.01 C 22.31 84.07 22.09 86.70 24.10 87.97 C 25.86 88.96 27.99 88.68 29.92 88.82 C 44.94 88.71 59.95 88.79 74.97 88.77 C 78.87 88.72 82.81 89.09 86.69 88.47 C 89.19 88.02 89.85 85.22 89.80 83.06 C 90.02 64.71 89.96 46.36 90.06 28.01 C 89.93 26.09 90.20 23.77 88.59 22.36 C 87.18 20.78 84.87 21.08 82.98 20.94 C 67.30 21.04 51.62 21.01 35.94 20.98 C 32.35 21.03 28.72 20.65 25.16 21.29 Z" />
</g>
<g id="#a6d279ff">
<path fill="#a6d279" opacity="1.00" d=" M 25.16 21.29 C 28.72 20.65 32.35 21.03 35.94 20.98 C 51.62 21.01 67.30 21.04 82.98 20.94 C 84.87 21.08 87.18 20.78 88.59 22.36 C 90.20 23.77 89.93 26.09 90.06 28.01 C 89.96 46.36 90.02 64.71 89.80 83.06 C 89.85 85.22 89.19 88.02 86.69 88.47 C 82.81 89.09 78.87 88.72 74.97 88.77 C 59.95 88.79 44.94 88.71 29.92 88.82 C 27.99 88.68 25.86 88.96 24.10 87.97 C 22.09 86.70 22.31 84.07 22.15 82.01 C 22.05 63.66 21.96 45.30 21.97 26.95 C 21.81 24.65 22.72 21.96 25.16 21.29 Z" />
</g>
</svg>
