<?xml version="1.0" encoding="UTF-8" ?>
<!DOCTYPE svg PUBLIC "-//W3C//DTD SVG 1.1//EN" "http://www.w3.org/Graphics/SVG/1.1/DTD/svg11.dtd">
<svg width="112pt" height="110pt" viewBox="0 0 112 110" version="1.1" xmlns="http://www.w3.org/2000/svg">
<g id="#f0f0f0ff">
<path fill="#f0f0f0" opacity="1.00" d=" M 19.40 7.65 C 21.22 7.30 23.09 7.23 24.94 7.19 C 44.97 7.27 65.00 7.33 85.02 7.18 C 90.35 6.99 96.41 7.53 100.07 11.92 C 103.96 15.91 103.93 21.80 103.88 26.99 C 103.63 47.02 104.40 67.04 104.11 87.07 C 104.06 91.77 102.46 96.68 98.64 99.66 C 94.91 102.89 89.73 103.21 85.02 103.22 C 65.33 103.10 45.64 103.14 25.95 103.21 C 21.33 103.21 16.29 102.54 12.82 99.18 C 9.05 95.96 7.85 90.83 7.85 86.06 C 7.67 66.37 8.36 46.68 8.12 26.99 C 8.17 23.61 8.03 20.14 9.03 16.87 C 10.53 12.26 14.62 8.55 19.40 7.65 M 23.35 16.29 C 18.78 17.55 16.40 22.46 16.65 26.93 C 16.74 45.97 16.70 65.02 16.79 84.07 C 16.55 89.57 21.42 94.46 26.93 94.19 C 45.30 94.27 63.67 94.13 82.04 94.25 C 84.97 94.23 88.14 94.33 90.68 92.63 C 93.94 90.68 95.41 86.75 95.25 83.08 C 95.26 64.70 95.26 46.32 95.36 27.94 C 95.41 25.06 95.07 22.02 93.34 19.62 C 91.28 16.69 87.51 15.57 84.07 15.63 C 65.70 15.65 47.32 15.68 28.95 15.62 C 27.07 15.65 25.14 15.66 23.35 16.29 Z" />
</g>
<g id="#b8b8b8ff">
<path fill="#b8b8b8" opacity="1.00" d=" M 19.37 2.60 C 24.54 1.80 29.79 2.21 35.00 2.16 C 49.66 2.18 64.33 2.20 79.00 2.15 C 83.81 2.17 88.70 1.81 93.45 2.76 C 99.93 4.05 105.49 9.00 107.61 15.24 C 108.80 18.68 108.87 22.37 108.89 25.97 C 108.77 42.65 108.83 59.32 108.84 76.00 C 108.79 81.21 109.20 86.46 108.40 91.63 C 107.38 98.18 102.66 103.96 96.49 106.34 C 92.86 107.78 88.89 107.87 85.03 107.89 C 68.35 107.77 51.68 107.83 35.00 107.84 C 29.79 107.79 24.54 108.20 19.37 107.40 C 12.82 106.38 7.04 101.66 4.66 95.49 C 3.22 91.85 3.13 87.89 3.11 84.03 C 3.22 67.02 3.18 50.01 3.15 33.00 C 3.20 27.85 2.76 22.64 3.76 17.55 C 5.24 9.99 11.76 3.76 19.37 2.60 M 19.40 7.65 C 14.62 8.55 10.53 12.26 9.03 16.87 C 8.03 20.14 8.17 23.61 8.12 26.99 C 8.36 46.68 7.67 66.37 7.85 86.06 C 7.85 90.83 9.05 95.96 12.82 99.18 C 16.29 102.54 21.33 103.21 25.95 103.21 C 45.64 103.14 65.33 103.10 85.02 103.22 C 89.73 103.21 94.91 102.89 98.64 99.66 C 102.46 96.68 104.06 91.77 104.11 87.07 C 104.40 67.04 103.63 47.02 103.88 26.99 C 103.93 21.80 103.96 15.91 100.07 11.92 C 96.41 7.53 90.35 6.99 85.02 7.18 C 65.00 7.33 44.97 7.27 24.94 7.19 C 23.09 7.23 21.22 7.30 19.40 7.65 Z" />
<path fill="#b8b8b8" opacity="1.00" d=" M 25.39 21.43 C 27.21 20.99 29.09 20.98 30.95 20.94 C 47.31 21.07 63.68 21.09 80.04 20.93 C 82.21 20.97 84.42 20.91 86.54 21.45 C 88.88 23.19 90.15 26.03 90.01 28.93 C 90.05 45.29 89.84 61.65 90.07 78.02 C 90.01 80.80 90.22 83.67 89.33 86.35 C 88.63 88.98 85.22 88.74 83.06 89.01 C 65.69 89.03 48.31 88.86 30.94 89.07 C 28.48 88.89 25.50 89.37 23.65 87.35 C 21.61 85.51 22.11 82.52 21.93 80.06 C 22.11 63.02 22.04 45.97 21.96 28.93 C 22.15 26.24 21.84 21.88 25.39 21.43 Z" />
</g>
<g id="#707070ff">
<path fill="#707070" opacity="1.00" d=" M 23.35 16.29 C 25.14 15.66 27.07 15.65 28.95 15.62 C 47.32 15.68 65.70 15.65 84.07 15.63 C 87.51 15.57 91.28 16.69 93.34 19.62 C 95.07 22.02 95.41 25.06 95.36 27.94 C 95.26 46.32 95.26 64.70 95.25 83.08 C 95.41 86.75 93.94 90.68 90.68 92.63 C 88.14 94.33 84.97 94.23 82.04 94.25 C 63.67 94.13 45.30 94.27 26.93 94.19 C 21.42 94.46 16.55 89.57 16.79 84.07 C 16.70 65.02 16.74 45.97 16.65 26.93 C 16.40 22.46 18.78 17.55 23.35 16.29 M 25.39 21.43 C 21.84 21.88 22.15 26.24 21.96 28.93 C 22.04 45.97 22.11 63.02 21.93 80.06 C 22.11 82.52 21.61 85.51 23.65 87.35 C 25.50 89.37 28.48 88.89 30.94 89.07 C 48.31 88.86 65.69 89.03 83.06 89.01 C 85.22 88.74 88.63 88.98 89.33 86.35 C 90.22 83.67 90.01 80.80 90.07 78.02 C 89.84 61.65 90.05 45.29 90.01 28.93 C 90.15 26.03 88.88 23.19 86.54 21.45 C 84.42 20.91 82.21 20.97 80.04 20.93 C 63.68 21.09 47.31 21.07 30.95 20.94 C 29.09 20.98 27.21 20.99 25.39 21.43 Z" />
</g>
</svg>
