<?xml version="1.0" encoding="UTF-8" ?>
<!DOCTYPE svg PUBLIC "-//W3C//DTD SVG 1.1//EN" "http://www.w3.org/Graphics/SVG/1.1/DTD/svg11.dtd">
<svg width="112pt" height="110pt" viewBox="0 0 112 110" version="1.1" xmlns="http://www.w3.org/2000/svg">
<g id="#ebebebff">
<path fill="#ebebeb" opacity="1.00" d=" M 19.41 7.58 C 22.28 7.09 25.20 7.27 28.10 7.24 C 48.40 7.27 68.69 7.24 88.99 7.26 C 96.89 6.85 104.10 14.05 103.79 21.94 C 103.89 43.96 104.00 65.98 104.01 88.01 C 104.29 96.01 97.05 103.29 89.03 103.02 C 66.99 102.99 44.96 102.99 22.92 103.02 C 14.92 103.27 7.72 95.98 7.99 88.00 C 8.00 65.99 8.11 43.98 8.21 21.97 C 7.94 15.32 13.00 9.09 19.41 7.58 M 71.06 20.15 C 59.58 35.47 51.43 52.94 44.14 70.56 C 43.84 70.49 43.25 70.35 42.95 70.28 C 39.12 65.03 35.41 59.63 30.31 55.50 C 27.51 55.29 24.58 55.59 22.48 57.66 C 21.53 59.85 22.84 62.13 24.54 63.51 C 30.50 69.00 34.96 75.82 39.34 82.57 C 41.42 85.95 45.81 85.60 48.96 84.10 C 49.87 82.46 50.70 80.77 51.30 78.99 C 58.50 58.19 69.33 38.76 82.51 21.16 C 82.51 20.27 82.51 18.49 82.51 17.60 C 78.59 17.41 73.82 16.60 71.06 20.15 Z" />
</g>
<g id="#c0c0c0ff">
<path fill="#c0c0c0" opacity="1.00" d=" M 19.39 2.48 C 21.24 2.08 23.14 2.00 25.03 1.99 C 46.02 2.02 67.00 1.99 87.98 2.01 C 93.50 2.02 99.12 4.00 103.03 7.97 C 106.99 11.87 108.97 17.49 108.99 22.99 C 109.00 44.32 109.00 65.64 108.99 86.97 C 109.01 93.17 106.43 99.49 101.52 103.39 C 97.49 106.69 92.18 108.12 87.02 108.01 C 66.00 107.98 44.98 108.01 23.95 107.99 C 18.24 107.97 12.41 105.80 8.51 101.54 C 4.59 97.42 2.85 91.61 2.99 86.00 C 3.04 64.66 2.94 43.31 3.04 21.96 C 3.15 12.69 10.16 4.04 19.39 2.48 M 19.41 7.58 C 13.00 9.09 7.94 15.32 8.21 21.97 C 8.11 43.98 8.00 65.99 7.99 88.00 C 7.72 95.98 14.92 103.27 22.92 103.02 C 44.96 102.99 66.99 102.99 89.03 103.02 C 97.05 103.29 104.29 96.01 104.01 88.01 C 104.00 65.98 103.89 43.96 103.79 21.94 C 104.10 14.05 96.89 6.85 88.99 7.26 C 68.69 7.24 48.40 7.27 28.10 7.24 C 25.20 7.27 22.28 7.09 19.41 7.58 Z" />
</g>
<g id="#99cc66ff">
<path fill="#99cc66" opacity="1.00" d=" M 71.06 20.15 C 73.82 16.60 78.59 17.41 82.51 17.60 C 82.51 18.49 82.51 20.27 82.51 21.16 C 69.33 38.76 58.50 58.19 51.30 78.99 C 50.70 80.77 49.87 82.46 48.96 84.10 C 45.81 85.60 41.42 85.95 39.34 82.57 C 34.96 75.82 30.50 69.00 24.54 63.51 C 22.84 62.13 21.53 59.85 22.48 57.66 C 24.58 55.59 27.51 55.29 30.31 55.50 C 35.41 59.63 39.12 65.03 42.95 70.28 C 43.25 70.35 43.84 70.49 44.14 70.56 C 51.43 52.94 59.58 35.47 71.06 20.15 Z" />
</g>
</svg>
